<?xml version="1.0" encoding="iso-8859-1"?>
<!-- Uploaded to: SVG Repo, www.svgrepo.com, Generator: SVG Repo Mixer Tools -->
<svg fill="#000000" height="800px" width="800px" version="1.1" id="Layer_1" xmlns="http://www.w3.org/2000/svg" xmlns:xlink="http://www.w3.org/1999/xlink" 
	 viewBox="0 0 512 512" xml:space="preserve">
<g>
	<g>
		<g>
			<path d="M203.817,428.892v0.023c0,4.466,3.618,8.072,8.084,8.072c4.466,0,8.084-3.63,8.084-8.096s-3.619-8.084-8.084-8.084
				C207.435,420.807,203.817,424.428,203.817,428.892z"/>
			<path d="M300.099,420.808c-4.466,0-8.084,3.618-8.084,8.084v0.023c0,4.466,3.619,8.072,8.084,8.072s8.084-3.63,8.084-8.096
				C308.183,424.428,304.565,420.808,300.099,420.808z"/>
			<path d="M262.615,428.892v0.023c0,4.466,3.618,8.072,8.084,8.072c4.466,0,8.084-3.63,8.084-8.096s-3.618-8.084-8.084-8.084
				C266.234,420.807,262.615,424.428,262.615,428.892z"/>
			<path d="M233.214,428.892v0.023c0,4.466,3.619,8.072,8.084,8.072c4.466,0,8.084-3.63,8.084-8.096s-3.618-8.084-8.084-8.084
				C236.833,420.807,233.214,424.428,233.214,428.892z"/>
			<path d="M392.976,342.124c-4.286-2.473-9.154-3.78-14.081-3.78c-10.052,0-19.419,5.405-24.441,14.104
				c-7.775,13.465-3.144,30.747,10.322,38.523c4.285,2.474,9.154,3.782,14.082,3.782h0.001c10.052,0,19.418-5.406,24.441-14.105
				C411.075,367.183,406.444,349.901,392.976,342.124z M389.298,372.565c-2.144,3.713-6.144,6.021-10.44,6.021
				c-2.093,0-4.167-0.559-5.996-1.616c-5.746-3.318-7.722-10.692-4.405-16.437c2.144-3.713,6.144-6.02,10.439-6.02
				c2.093,0,4.167,0.558,5.997,1.615C390.639,359.446,392.615,366.819,389.298,372.565z"/>
			<path d="M444.881,308.627c7.775-13.467,3.145-30.749-10.321-38.525c-4.286-2.474-9.155-3.782-14.082-3.782
				c-10.054,0-19.419,5.406-24.441,14.104c-3.766,6.525-4.768,14.124-2.818,21.399c1.95,7.276,6.616,13.358,13.141,17.126
				c4.285,2.473,9.152,3.78,14.081,3.78C430.494,322.729,439.859,317.326,444.881,308.627z M414.443,304.946
				c-2.783-1.607-4.775-4.202-5.606-7.306c-0.832-3.105-0.405-6.348,1.202-9.132c2.144-3.712,6.143-6.02,10.439-6.02
				c2.092,0,4.166,0.558,5.996,1.616c5.746,3.318,7.722,10.693,4.404,16.439c-2.143,3.711-6.143,6.018-10.439,6.018
				C418.346,306.561,416.272,306.001,414.443,304.946z"/>
			<path d="M479.971,187.6h-71.422c-4.466,0-8.084,3.618-8.084,8.084c0,4.466,3.619,8.084,8.084,8.084h71.422
				c8.745,0,15.86,7.115,15.86,15.861v221.815c0,8.746-7.115,15.861-15.86,15.861H32.03c-8.745,0-15.861-7.115-15.861-15.861V219.63
				c0-8.746,7.116-15.861,15.861-15.861h171.787v19.303c0,4.466,3.618,8.084,8.084,8.084h88.198c4.466,0,8.084-3.619,8.084-8.084
				v-19.303h74.497c4.466,0,8.084-3.618,8.084-8.084c0-4.466-3.619-8.084-8.084-8.084h-82.581h-37.165v-19.303
				c0-17.908,14.57-32.478,32.477-32.478h22.918h17.046h15.177c26.823,0,48.646-21.823,48.646-48.646
				c0-26.823-21.823-48.646-48.646-48.646h-15.177h-17.046h-65.544c-4.466,0-8.084,3.618-8.084,8.084
				c0,4.466,3.618,8.084,8.084,8.084h65.544h17.046h15.177c17.908,0,32.478,14.57,32.478,32.478s-14.57,32.478-32.478,32.478
				h-15.177h-17.046h-22.918c-26.823,0-48.645,21.823-48.645,48.646V187.6h-34.865H32.03C14.368,187.6,0,201.968,0,219.63v221.815
				c0,17.661,14.368,32.03,32.03,32.03h447.942c17.66,0,32.029-14.368,32.029-32.03V219.63C512,201.968,497.632,187.6,479.971,187.6
				z M219.985,203.768h72.029v11.219h-72.029V203.768z"/>
			<path d="M84.105,378.29h28.449c4.466,0,8.084-3.618,8.084-8.084v-17.359h17.359c4.466,0,8.084-3.618,8.084-8.084v-28.449
				c0-4.466-3.618-8.084-8.084-8.084h-17.359V290.87c0-4.466-3.619-8.084-8.084-8.084H84.105c-4.466,0-8.084,3.618-8.084,8.084
				v17.361H58.661c-4.466,0-8.084,3.618-8.084,8.084v28.449c0,4.466,3.619,8.084,8.084,8.084h17.359v17.359
				C76.021,374.672,79.64,378.29,84.105,378.29z M66.745,336.679v-0.001v-12.281h17.359c4.466,0,8.084-3.618,8.084-8.084v-17.359
				h12.28v17.361c0,4.466,3.619,8.084,8.084,8.084h17.359v12.28h-17.359c-4.466,0-8.084,3.619-8.084,8.084v17.359h-12.28v-17.359
				c0-4.466-3.618-8.084-8.084-8.084H66.745z"/>
			<path d="M300.099,256.811h-88.198c-4.466,0-8.084,3.618-8.084,8.084c0,4.466,3.618,8.084,8.084,8.084h88.198
				c4.466,0,8.084-3.618,8.084-8.084C308.183,260.429,304.565,256.811,300.099,256.811z"/>
			<path d="M300.099,295.009h-88.198c-4.466,0-8.084,3.618-8.084,8.084c0,4.466,3.618,8.084,8.084,8.084h88.198
				c4.466,0,8.084-3.618,8.084-8.084C308.183,298.628,304.565,295.009,300.099,295.009z"/>
			<path d="M300.099,333.206h-88.198c-4.466,0-8.084,3.619-8.084,8.084s3.618,8.084,8.084,8.084h88.198
				c4.466,0,8.084-3.619,8.084-8.084S304.565,333.206,300.099,333.206z"/>
			<path d="M300.099,371.403h-88.198c-4.466,0-8.084,3.618-8.084,8.084c0,4.466,3.618,8.084,8.084,8.084h88.198
				c4.466,0,8.084-3.618,8.084-8.084C308.183,375.021,304.565,371.403,300.099,371.403z"/>
		</g>
	</g>
</g>
</svg>