<svg width="19" height="23" viewBox="0 0 19 23" fill="none" xmlns="http://www.w3.org/2000/svg">
<path d="M15.9906 2.46362H14.9145C14.9239 2.55419 14.929 2.64547 14.929 2.7385V3.94456C14.929 4.20529 14.8896 4.45667 14.8184 4.69458H16.1801C16.2064 4.69458 16.2275 4.71565 16.2275 4.74193V20.2618C16.2275 20.288 16.2064 20.3092 16.1801 20.3092H2.81994C2.79366 20.3092 2.77255 20.288 2.77255 20.2618V4.74193C2.77255 4.71565 2.79366 4.69458 2.81994 4.69458H4.18161C4.11041 4.45667 4.07097 4.20529 4.07097 3.94456V2.7385C4.07097 2.64547 4.07618 2.55419 4.08548 2.46362H3.00942C1.70722 2.46362 0.648102 3.5227 0.648102 4.8249V20.6386C0.648102 21.9408 1.70722 22.9999 3.00942 22.9999H15.9905C17.2927 22.9999 18.3518 21.9408 18.3518 20.6386V4.82494C18.3519 3.52275 17.2928 2.46362 15.9906 2.46362Z" fill="#E3E3E3"/>
<path d="M6.69161 5.50302H12.3084C13.1676 5.50302 13.8668 4.80381 13.8668 3.94459V2.73853C13.8668 1.87926 13.1676 1.18014 12.3084 1.18014H11.0778C10.8751 0.48893 10.2448 0 9.49999 0C8.75483 0 8.12484 0.48893 7.92188 1.18014H6.69161C5.83234 1.18014 5.13318 1.87931 5.13318 2.73853V3.94459C5.13318 4.80386 5.83234 5.50302 6.69161 5.50302ZM9.50035 1.0584C9.82742 1.0584 10.0937 1.32466 10.0937 1.65178C10.0937 1.97993 9.82742 2.24618 9.50035 2.24618C9.17255 2.24618 8.90594 1.97998 8.90594 1.65178C8.90594 1.32466 9.17255 1.0584 9.50035 1.0584Z" fill="#E3E3E3"/>
<path d="M6.4627 9.20317L7.88488 7.78063L7.36792 7.26367L5.94542 8.68585L5.04052 7.78063L4.52328 8.29791L5.94542 9.72045L6.4627 9.20317Z" fill="#E3E3E3"/>
<path d="M6.4627 12.921L7.88488 11.4985L7.36792 10.9816L5.94542 12.4037L5.04052 11.4985L4.52328 12.0158L5.94542 13.4383L6.4627 12.921Z" fill="#E3E3E3"/>
<path d="M6.4627 16.601L7.88488 15.1784L7.36792 14.6615L5.94542 16.0836L5.04052 15.1784L4.52328 15.6957L5.94542 17.1182L6.4627 16.601Z" fill="#E3E3E3"/>
</svg>
